# AST/ASF file generated using VICON BodyLanguage
# -----------------------------------------------
:version 1.10
:name VICON
:units
  mass 1.0
  length 0.45
  angle deg
:documentation
   .ast/.asf automatically generated from VICON data using
   VICON BodyBuilder and BodyLanguage model FoxedUp or BRILLIANT.MOD
:root
   order TX TY TZ RX RY RZ
   axis XYZ
   position 0 0 0  
   orientation 0 0 0 
:bonedata
  begin
     id 1 
     name lhipjoint
     direction 0.623415 -0.642378 0.445763 
     length 2.49859 
     axis 0 0 0  XYZ
  end
  begin
     id 2 
     name lfemur
     direction 0.34202 -0.939693 0  
     length 6.69689  
     axis 0 0 20  XYZ
    dof rx ry rz
    limits (-160.0 20.0)
           (-70.0 70.0)
           (-60.0 70.0)
  end
  begin
     id 3 
     name ltibia
     direction 0.34202 -0.939693 0   
     length 7.37574   
     axis 0 0 20   XYZ
    dof rx
    limits (-10.0 170.0)
  end
  begin
     id 4 
     name lfoot
     direction 0.084323 -0.231675 0.969132   
     length 2.09111   
     axis -90 7.62852e-016 20   XYZ
    dof rx rz
    limits (-45.0 90.0)
           (-70.0 20.0)
  end
  begin
     id 5 
     name ltoes
     direction 1.5357e-011 -4.21957e-011 1   
     length 1.04989   
     axis -90 7.62852e-016 20   XYZ
    dof rx
    limits (-90.0 20.0)
  end
  begin
     id 6 
     name rhipjoint
     direction -0.605402 -0.653903 0.45376   
     length 2.45455  
     axis 0 0 0  XYZ 
  end
  begin
     id 7 
     name rfemur
     direction -0.34202 -0.939693 0   
     length 6.64523   
     axis 0 0 -20   XYZ
    dof rx ry rz
    limits (-160.0 20.0)
           (-70.0 70.0)
           (-70.0 60.0)
  end
  begin
     id 8 
     name rtibia
     direction -0.34202 -0.939693 0   
     length 7.3339   
     axis 0 0 -20   XYZ
    dof rx
    limits (-10.0 170.0)
 end
 begin
     id 9 
     name rfoot
     direction -0.120854 -0.332043 0.93549   
     length 2.23135  
     axis -90 -7.62852e-016 -20   XYZ
    dof rx rz
    limits (-45.0 90.0)
           (-20.0 70.0)
  end
  begin
     id 10 
     name rtoes
     direction -1.53563e-011 -4.21914e-011 1   
     length 1.10614   
     axis -90 -7.62852e-016 -20   XYZ
    dof rx
    limits (-90.0 20.0)
  end
  begin
     id 11 
     name lowerback
     direction 0.0319682 0.998615 -0.0417941   
     length 2.02718   
     axis 0 0 0   XYZ
    dof rx ry rz
    limits (-20.0 45.0)
           (-30.0 30.0)
           (-30.0 30.0)
  end
  begin
     id 12 
     name upperback
     direction 7.63181e-005 0.995808 0.0914691   
     length 1.97539   
     axis 0 0 0   XYZ
    dof rx ry rz
    limits (-20.0 45.0)
           (-30.0 30.0)
           (-30.0 30.0)
  end
  begin
     id 13 
     name thorax
     direction -0.016423 0.993627 0.111514   
     length 2.00349   
     axis 0 0 0   XYZ
    dof rx ry rz
    limits (-20.0 45.0)
           (-30.0 30.0)
           (-30.0 30.0)
  end
  begin
     id 14 
     name lowerneck
     direction -0.174763 0.981668 -0.0760716   
     length 1.71436   
     axis 0 0 0   XYZ
    dof rx ry rz
    limits (-20.0 45.0)
           (-30.0 30.0)
           (-30.0 30.0)
  end
  begin
     id 15 
     name upperneck
     direction 0.345458 0.934587 -0.0848868   
     length 1.72805   
     axis 0 0 0   XYZ
    dof rx ry rz
    limits (-20.0 45.0)
           (-30.0 30.0)
           (-30.0 30.0)
  end
  begin
     id 16
     name head
     direction 0.13001 0.989848 -0.0574291  
     length 1.767  
     axis 0 0 0   XYZ
    dof rx ry rz
    limits (-20.0 45.0)
           (-30.0 30.0)
           (-30.0 30.0)
  end
  begin
     id 17 
     name lclavicle
     direction 0.952951 0.290122 0.0878234  
     length 3.54654  
     axis 0 0 0   XYZ
    dof ry rz
    limits (-20.0 10.0)
           (0.0 20.0)
  end
  begin
     id 18 
     name lhumerus
     direction 1 -4.48957e-011 -4.56525e-028   
     length 5.19807   
     axis 180 -30 -90   XYZ
    dof rx ry rz
    limits (-60.0 90.0)
           (-90.0 90.0)
           (-90.0 90.0)
  end
  begin
     id 19
     name lradius
     direction 1 -4.48979e-011 -2.0317e-027   
     length 3.0937   
     axis 180 -30 -90   XYZ
    dof rx
    limits (-10.0 170.0)
  end
  begin
     id 20
     name lwrist
     direction 1 -4.48953e-011 -3.05809e-027   
     length 1.54685   
     axis 8.48514e-016 90 90   XYZ
    dof ry
    limits (-180.0 0.0)
 end
  begin
     id 21 
     name lhand
     direction 1 -4.48952e-011 -6.11639e-027   
     length 0.672632   
     axis 3.9013e-015 90 90   XYZ
    dof rx rz
    limits (-90.0 90.0)
           (-45.0 45.0)
  end
  begin
     id 22 
     name lfingers
     direction 1 -4.48925e-011 -1.22426e-026   
     length 0.542293   
     axis 7.80276e-015 90 90   XYZ
    dof rx
    limits (0.0 90.0)
  end
  begin
     id 23
     name lthumb
     direction 0.707107 -6.3486e-011 0.707107   
     length 0.778628   
     axis -90 45 5.37419e-014   XYZ
    dof rx rz
    limits (-45.0 45.0)
           (-45.0 45.0)
  end
  begin
     id 24 
     name rclavicle
     direction -0.960732 0.273675 -0.0457849   
     length 3.52079  
     axis 0 0 0   XYZ 
    dof ry rz
    limits (-10.0 20.0)
           (-20.0 0.0)
  end
  begin
     id 25 
     name rhumerus
     direction -1 -4.48976e-011 -1.63613e-027  
     length 5.45222   
     axis 180 30 90   XYZ
    dof rx ry rz
    limits (-90.0 60.0)
           (-90.0 90.0)
           (-90.0 90.0)
  end
  begin
     id 26 
     name rradius
     direction -1 -4.48957e-011 -7.00033e-028   
     length 3.01284   
     axis 180 30 90   XYZ
    dof rx
    limits (-10.0 170.0)
  end
  begin
     id 27 
     name rwrist
     direction -1 -4.48983e-011 -3.05543e-027   
     length 1.50642   
     axis 8.48514e-016 -90 -90   XYZ
    dof ry
    limits (-180.0 0.0)
  end
  begin
     id 28
     name rhand
     direction -1 -4.48984e-011 -6.11072e-027   
     length 0.622296   
     axis 3.9013e-015 -90 -90   XYZ
    dof rx rz
    limits (-90.0 90.0)
           (-45.0 45.0)
  end
  begin
     id 29
     name rfingers
     direction -1 -4.48865e-011 -1.22637e-026   
     length 0.501711   
     axis 7.80276e-015 -90 -90   XYZ
    dof rx
    limits (0.0 90.0)
  end
  begin
     id 30
     name rthumb
     direction -0.707107 -6.34932e-011 0.707107   
     length 0.72036   
     axis -90 -45 -5.37419e-014   XYZ
    dof rx rz
    limits (-45.0 45.0)
           (-45.0 45.0)
  end
:hierarchy
  begin
    root lhipjoint rhipjoint lowerback
    lhipjoint lfemur
    lfemur ltibia
    ltibia lfoot
    lfoot ltoes
    rhipjoint rfemur
    rfemur rtibia
    rtibia rfoot
    rfoot rtoes
    lowerback upperback
    upperback thorax
    thorax lowerneck lclavicle rclavicle
    lowerneck upperneck
    upperneck head
    lclavicle lhumerus
    lhumerus lradius
    lradius lwrist
    lwrist lhand lthumb
    lhand lfingers
    rclavicle rhumerus
    rhumerus rradius
    rradius rwrist
    rwrist rhand rthumb
    rhand rfingers
  end

#!OML:ASF H:\Not Pregnant\Project 1\Capture day 1\Session 1\non-pregnant.ASF
:FULLY-SPECIFIED
:DEGREES
687
root -4.72744 16.299 -7.77419 153.769 -82.9152 -142.651
lowerback -1.98201 2.19621 5.23135
upperback -8.04919 2.78578 -0.217476
thorax -7.04747 0.921881 -3.24421
lowerneck 24.0158 -9.77977 -30.5832
upperneck -11.1038 -21.8766 44.8088
head 2.66222 -14.6047 23.8337
rclavicle -1.66234e-014 -4.96962e-015
rhumerus -30.3091 -2.83217 -76.8877
rradius 25.3647
rwrist 27.4883
rhand -11.4485 3.43054
rfingers 7.12502
rthumb 14.5884 -26.0364
lclavicle -1.66234e-014 -4.96962e-015
lhumerus -50.3469 6.18561 80.4298
lradius 33.3008
lwrist 35.6034
lhand -9.42668 -11.4377
lfingers 7.12502
lthumb 16.5357 17.8778
rfemur -22.7698 4.6722 20.3502
rtibia 36.7238
rfoot -25.5817 16.6568
rtoes -18.2368
lfemur -28.6521 6.83869 -20.335
ltibia 49.4937
lfoot -27.6122 1.76308
ltoes -32.5735
688
root -4.72899 16.2917 -7.83207 152.184 -82.9928 -141.022
lowerback -2.11834 2.13606 5.25521
upperback -8.05157 2.69921 -0.128064
thorax -6.98267 0.881589 -3.15541
lowerneck 23.9802 -9.7728 -30.5497
upperneck -11.002 -21.8715 44.7835
head 2.68168 -14.5959 23.8027
rclavicle 1.71452e-014 3.29983e-014
rhumerus -30.2786 -3.75526 -76.5042
rradius 25.198
rwrist 27.9979
rhand -11.6339 3.25999
rfingers 7.12502
rthumb 14.4097 -26.2198
lclavicle 1.71452e-014 3.29983e-014
lhumerus -50.2621 5.46343 80.8587
lradius 33.2178
lwrist 36.0332
lhand -9.2542 -11.2668
lfingers 7.12502
lthumb 16.7017 18.0347
rfemur -22.8498 4.70069 20.7172
rtibia 36.9017
rfoot -25.6338 16.5127
rtoes -18.1772
lfemur -28.8033 6.67054 -20.8147
ltibia 49.5838
lfoot -27.9206 1.62046
ltoes -32.4211
689
root -4.7308 16.2856 -7.88881 150.641 -83.0686 -139.438
lowerback -2.25089 2.08175 5.2686
upperback -8.05182 2.61979 -0.0538086
thorax -6.91661 0.845146 -3.07739
lowerneck 23.9725 -9.76754 -30.4958
upperneck -10.9429 -21.8596 44.771
head 2.681 -14.5885 23.7837
rclavicle -1.44119e-015 8.34896e-015
rhumerus -30.3003 -4.71274 -76.14
rradius 25.0743
rwrist 28.3817
rhand -11.8383 3.08478
rfingers 7.12502
rthumb 14.2128 -26.409
lclavicle -1.44119e-015 8.34896e-015
lhumerus -50.1552 4.68234 81.3133
lradius 33.1197
lwrist 36.2988
lhand -9.20042 -11.0606
lfingers 7.12502
lthumb 16.7535 18.2365
rfemur -22.9069 4.72842 21.0714
rtibia 37.0474
rfoot -25.6589 16.3973
rtoes -18.0548
lfemur -28.9267 6.51405 -21.2638
ltibia 49.6667
lfoot -28.1254 1.54698
ltoes -32.1644
690
root -4.73283 16.2811 -7.94413 149.14 -83.1458 -137.893
lowerback -2.38757 2.02756 5.27134
upperback -8.05001 2.53985 0.0183855
thorax -6.84608 0.809219 -2.99575
lowerneck 23.9756 -9.76309 -30.4456
upperneck -10.919 -21.8429 44.7645
head 2.66874 -14.5801 23.7732
rclavicle 9.98893e-015 5.56597e-015
rhumerus -30.3653 -5.68538 -75.7848
rradius 24.9948
rwrist 28.6589
rhand -12.0519 2.9096
rfingers 7.12502
rthumb 14.0069 -26.5985
lclavicle 9.98893e-015 5.56597e-015
lhumerus -50.0307 3.86527 81.7984
lradius 33.0199
lwrist 36.4315
lhand -9.20595 -10.7963
lfingers 7.12502
lthumb 16.7482 18.5013
rfemur -22.9525 4.7319 21.4115
rtibia 37.1607
rfoot -25.6673 16.323
rtoes -17.8801
lfemur -29.0334 6.37155 -21.6815
ltibia 49.7382
lfoot -28.2236 1.43249
ltoes -31.5881
691
root -4.73512 16.2777 -7.99773 147.698 -83.2262 -136.399
lowerback -2.53138 1.97476 5.26677
upperback -8.04835 2.46055 0.0795409
thorax -6.77117 0.773751 -2.92174
lowerneck 23.9898 -9.75891 -30.3857
upperneck -10.9236 -21.819 44.7655
head 2.64371 -14.5704 23.7705
rclavicle -4.4975e-015 1.98785e-016
rhumerus -30.4687 -6.60734 -75.4606
rradius 24.9605
rwrist 28.777
rhand -12.263 2.73632
rfingers 7.12502
rthumb 13.8035 -26.7857
lclavicle -4.4975e-015 1.98785e-016
lhumerus -49.8867 3.03657 82.2835
lradius 32.9113
lwrist 36.4102
lhand -9.24715 -10.4953
lfingers 7.12502
lthumb 16.7085 18.8056
rfemur -22.9929 4.70213 21.7325
rtibia 37.2465
rfoot -25.6648 16.2905
rtoes -17.6473
lfemur -29.1281 6.26486 -22.0804
ltibia 49.7895
lfoot -28.1968 1.33151
ltoes -30.8621
692
root -4.73759 16.2758 -8.04929 146.269 -83.3086 -134.91
lowerback -2.68232 1.91956 5.26629
upperback -8.04567 2.37728 0.136665
thorax -6.69105 0.736005 -2.85424
lowerneck 24.0045 -9.75199 -30.3345
upperneck -10.9472 -21.7886 44.771
head 2.61314 -14.5579 23.776
rclavicle 8.99501e-015 3.37934e-015
rhumerus -30.6097 -7.52331 -75.1574
rradius 24.9667
rwrist 28.8153
rhand -12.4937 2.56699
rfingers 7.12502
rthumb 13.5812 -26.97
lclavicle 8.99501e-015 3.37934e-015
lhumerus -49.7328 2.18362 82.7862
lradius 32.8102
lwrist 36.2668
lhand -9.32114 -10.1843
lfingers 7.12502
lthumb 16.6373 19.1226
rfemur -23.0286 4.62337 22.0394
rtibia 37.3034
rfoot -25.6641 16.2975
rtoes -17.378
lfemur -29.2112 6.18678 -22.455
ltibia 49.8138
lfoot -28.0159 1.19531
ltoes -29.8275
693
root -4.74027 16.275 -8.0987 144.947 -83.3983 -133.52
lowerback -2.84045 1.86321 5.25411
upperback -8.04134 2.29161 0.190514
thorax -6.60528 0.697835 -2.78375
lowerneck 24.0113 -9.74039 -30.3097
upperneck -10.979 -21.7572 44.7851
head 2.58793 -14.5451 23.7945
rclavicle -6.38596e-015 -4.37326e-015
rhumerus -30.7747 -8.34508 -74.8818
rradius 25.0139
rwrist 28.7162
rhand -12.7117 2.40521
rfingers 7.12502
rthumb 13.3711 -27.1457
lclavicle -6.38596e-015 -4.37326e-015
lhumerus -49.565 1.32831 83.2984
lradius 32.7023
lwrist 35.9846
lhand -9.42747 -9.91407
lfingers 7.12502
lthumb 16.5349 19.4014
rfemur -23.062 4.4872 22.3175
rtibia 37.3347
rfoot -25.6728 16.3436
rtoes -17.1022
lfemur -29.2827 6.16328 -22.8262
ltibia 49.7989
lfoot -27.6542 1.06886
ltoes -28.6271
